<svg xmlns="http://www.w3.org/2000/svg" viewBox="0 0 212.07 211.89"><defs><style>.cls-1{fill:#f37c4b;}.cls-2,.cls-3{fill:none;}.cls-2{stroke:#fff;stroke-linecap:round;stroke-miterlimit:10;stroke-width:2.66px;}.cls-4{fill:#fff;}</style></defs><g id="Layer_2" data-name="Layer 2"><g id="Layer_1-2" data-name="Layer 1"><circle class="cls-1" cx="75.67" cy="75.38" r="64.55"/><path class="cls-1" d="M11.75,66.38C15.91,62.74,20,59.22,24,55.74c1.66-1.44,3.76-3.22,6.53-3.13A8.33,8.33,0,0,1,36,55.28c3.59,3.45,5.73,9.12,5.89,9.54,3.19,8.71.41,14.89-.28,22.72-1.78,19.78,11,36,12.77,38.33A50.18,50.18,0,0,0,71.8,139.82"/><path class="cls-1" d="M71.08,11h0a29.43,29.43,0,0,0-11.6,9.53c-1.44,2.09-5.16,7.4-3.41,11.93a6.06,6.06,0,0,0,1.78,2.45c2.59,2.17,7.93,3.58,19,5.5,21.69,3.78,25.9,2.67,34.36,6a60.4,60.4,0,0,1,20.16,14.2,47.78,47.78,0,0,1,8.9,14.1"/><path class="cls-1" d="M31.65,28.19q8.28,7.31,15.73,14.12C58.62,52.55,68.44,61.85,76.8,69.93,102,94.3,115.17,109.05,120.25,114.8l3.35,3.82"/><line class="cls-2" x1="34.09" y1="125" x2="34.09" y2="124.99"/><line class="cls-2" x1="121.55" y1="30.27" x2="121.54" y2="30.27"/><polyline class="cls-2" points="70.75 10.97 70.76 10.97 70.77 10.97"/><path class="cls-2" d="M8.68,70.59C14.79,65.23,25,49,34.53,54.52c3.56,2,5.82,5.87,6.88,9.84,2.6,9.7-.79,19.44-.12,29.24a58.81,58.81,0,0,0,12.76,32.25c5,6.41,13.54,13.58,19.77,16.67"/><path class="cls-2" d="M70.77,11h0A29.33,29.33,0,0,0,59.16,20.5c-1.45,2.08-5.17,7.4-3.41,11.93a5.85,5.85,0,0,0,1.77,2.44c2.6,2.18,7.94,3.59,19,5.51,21.69,3.78,25.91,2.67,34.36,6A60.49,60.49,0,0,1,131,60.54c4,4.32,9.31,12.36,11.37,17.33"/><path class="cls-2" d="M41.78,133.25,34.09,125a80.39,80.39,0,0,1-7.58-28.11C25.9,89.26,25,76.29,31.9,62a62.93,62.93,0,0,1,3.76-6.69,0,0,0,0,0,0,0,60.54,60.54,0,0,1,11.4-13,68.53,68.53,0,0,1,8.4-6.17c.68-.44,1.37-.85,2.05-1.25C74.44,25,91.05,25.36,97.78,25.61a78.05,78.05,0,0,1,23.76,4.66l5.17,2.38"/><path class="cls-2" d="M31.34,28.17q8.28,7.3,15.73,14.12C58.31,52.53,68.13,61.83,76.48,69.91c25.16,24.37,38.38,39.12,43.45,44.86l3.36,3.83"/><path class="cls-3" d="M136.26,76.7a60.73,60.73,0,1,1-60.7-60.82A60.7,60.7,0,0,1,136.26,76.7Z"/><path class="cls-4" d="M210.7,181.82c-2-4.09-6.76-7.53-10-10.74-3.66-3.6-7.31-7.2-10.64-11.08a133.41,133.41,0,0,0-19.88-19.66c-1.61-1.27-4.82-3.77-8.86-3.49a12,12,0,0,0-7.09,3.49c-5.87-6.09-11.69-12.24-17.51-18.33a77,77,0,0,0,16-42.65c1.77-37.89-26.92-61.2-29.3-63.09C104.19,1.26,83.48.27,77.83,0A76.33,76.33,0,0,0,47.2,5.31a75.43,75.43,0,0,0-23.54,16C18.9,26,1.84,43.41.12,70.94a76.4,76.4,0,0,0,7.09,36.39c3.32,7.31,14.68,28.91,40.49,39.21a75.58,75.58,0,0,0,46.63,2.88,77.75,77.75,0,0,0,28.2-13.29c5.87,6,11.74,12,17.55,18.06a12.9,12.9,0,0,0-1.55,13.57c.89,2,3.88,4,5.38,5.59l5.37,5.54c5.48,5.65,11,11.19,16.12,17.06,4.87,5.54,10.3,11,16.89,14.51,7.36,3.93,16.78-.94,22.15-6.31S214.47,189.36,210.7,181.82ZM75.56,137.46a60.79,60.79,0,1,1,60.7-60.76A60.75,60.75,0,0,1,75.56,137.46Z"/><path class="cls-3" d="M136.26,76.7a60.73,60.73,0,1,1-60.7-60.82A60.7,60.7,0,0,1,136.26,76.7Z"/></g></g></svg>