<svg xmlns="http://www.w3.org/2000/svg" viewBox="0 0 792.83 310.24"><defs><style>.cls-1{fill:#fff;}.cls-2{fill:#f37c4b;}.cls-3,.cls-4{fill:none;}.cls-3{stroke:#fff;stroke-linecap:round;stroke-miterlimit:10;stroke-width:2.66px;}</style></defs><g id="Layer_2" data-name="Layer 2"><g id="Layer_1-2" data-name="Layer 1"><path class="cls-1" d="M0,134.64a9.22,9.22,0,0,1,2.45-5.92L97.1,16.12H18.36A8,8,0,0,1,10.4,8a8,8,0,0,1,8-8h96.08a8,8,0,0,1,8,8.16A9.11,9.11,0,0,1,120,14.08L25.29,126.68h89.15a8.06,8.06,0,0,1,0,16.12H8.16A8.19,8.19,0,0,1,0,134.64Z"/><path class="cls-1" d="M321.29,16.12H289.46A8.19,8.19,0,0,1,281.3,8a8,8,0,0,1,8.16-8h81a7.83,7.83,0,0,1,7.95,8,8,8,0,0,1-7.95,8.16H338.62V135.66a8.67,8.67,0,1,1-17.33,0Z"/><circle class="cls-2" cx="212.23" cy="78.24" r="64.55"/><path class="cls-2" d="M148.3,69.24c4.16-3.64,8.21-7.16,12.23-10.65,1.66-1.43,3.77-3.21,6.54-3.12a8.32,8.32,0,0,1,5.46,2.67c3.6,3.45,5.74,9.12,5.9,9.54,3.18,8.71.4,14.89-.29,22.72-1.77,19.77,11,36,12.77,38.33a50.3,50.3,0,0,0,17.44,14"/><path class="cls-2" d="M207.63,13.85h0A29.5,29.5,0,0,0,196,23.38c-1.44,2.08-5.16,7.4-3.4,11.93a6,6,0,0,0,1.77,2.45c2.59,2.17,7.94,3.58,19,5.5,21.69,3.78,25.9,2.67,34.36,6a60.4,60.4,0,0,1,20.16,14.2,47.77,47.77,0,0,1,8.91,14.09"/><path class="cls-2" d="M168.2,31.05q8.28,7.31,15.74,14.12C195.17,55.41,205,64.71,213.35,72.79c25.16,24.37,38.37,39.12,43.45,44.87l3.35,3.82"/><line class="cls-3" x1="170.64" y1="127.86" x2="170.64" y2="127.85"/><line class="cls-3" x1="258.1" y1="33.13" x2="258.09" y2="33.13"/><polyline class="cls-3" points="207.3 13.82 207.31 13.82 207.32 13.82"/><path class="cls-3" d="M145.23,73.45c6.11-5.36,16.33-21.56,25.85-16.07,3.56,2,5.82,5.87,6.88,9.83,2.6,9.71-.79,19.45-.12,29.25a58.88,58.88,0,0,0,12.76,32.25c5,6.4,13.55,13.58,19.78,16.66"/><path class="cls-3" d="M207.32,13.83h0a29.32,29.32,0,0,0-11.59,9.53c-1.45,2.08-5.16,7.4-3.41,11.92a6,6,0,0,0,1.78,2.45c2.59,2.18,7.93,3.59,18.95,5.51,21.69,3.78,25.91,2.67,34.37,6a60.4,60.4,0,0,1,20.16,14.2c4,4.32,9.31,12.36,11.37,17.33"/><path class="cls-3" d="M178.33,136.11l-7.69-8.26a80.6,80.6,0,0,1-7.58-28.11c-.61-7.62-1.48-20.59,5.4-34.92a61.2,61.2,0,0,1,3.75-6.69,0,0,0,0,0,0,0,61.42,61.42,0,0,1,11.4-13A69.29,69.29,0,0,1,192,39c.68-.44,1.37-.86,2.06-1.25,16.91-9.89,33.53-9.51,40.25-9.26a77.75,77.75,0,0,1,23.76,4.66l5.18,2.38"/><path class="cls-3" d="M167.89,31q8.28,7.32,15.73,14.12C194.86,55.39,204.68,64.69,213,72.77c25.16,24.37,38.38,39.12,43.46,44.86l3.35,3.83"/><path class="cls-4" d="M272.81,79.56a60.73,60.73,0,1,1-60.7-60.82A60.7,60.7,0,0,1,272.81,79.56Z"/><path class="cls-1" d="M347.26,184.68c-2.05-4.09-6.76-7.53-10-10.74-3.66-3.6-7.31-7.2-10.63-11.08a134,134,0,0,0-19.89-19.66c-1.6-1.28-4.82-3.77-8.86-3.49a12,12,0,0,0-7.09,3.49c-5.87-6.09-11.69-12.24-17.5-18.33,4.59-6,14.9-21.16,15.95-42.65C291,44.33,262.29,21,259.91,19.13c-19.16-15-39.88-16-45.53-16.23a76.59,76.59,0,0,0-30.63,5.26,75.86,75.86,0,0,0-23.54,16c-4.76,4.7-21.82,22.15-23.54,49.68a76.4,76.4,0,0,0,7.09,36.39c3.33,7.31,14.68,28.91,40.49,39.21a75.61,75.61,0,0,0,46.64,2.88A77.68,77.68,0,0,0,259.08,139c5.87,6,11.74,12,17.56,18.06a12.62,12.62,0,0,0-2.61,5.76,12.75,12.75,0,0,0,1.06,7.81c.88,2,3.87,4,5.37,5.59l5.37,5.54c5.48,5.65,11,11.19,16.12,17.06,4.87,5.54,10.3,11,16.89,14.51,7.37,3.93,16.78-.94,22.16-6.32S351,192.22,347.26,184.68ZM212.11,140.32a60.79,60.79,0,1,1,60.7-60.76A60.76,60.76,0,0,1,212.11,140.32Z"/><path class="cls-4" d="M272.81,79.56a60.73,60.73,0,1,1-60.7-60.82A60.7,60.7,0,0,1,272.81,79.56Z"/><path class="cls-1" d="M125.19,236.8c0-41,32-73.44,72.62-73.44a71.51,71.51,0,0,1,55.28,25.71,9.38,9.38,0,0,1,2.45,6.12,8.66,8.66,0,0,1-8.77,8.56c-2.25,0-4.69-1.42-6.94-3.46a53.19,53.19,0,0,0-42-20.4c-30.6,0-54.67,25.09-54.67,56.91,0,31.62,24.07,56.71,54.67,56.71a53.64,53.64,0,0,0,42-20.19c2.25-2.25,4.69-3.47,6.94-3.47a8.54,8.54,0,0,1,8.77,8.57,8.9,8.9,0,0,1-2.45,5.91,71,71,0,0,1-55.28,25.91C157.21,310.24,125.19,277.8,125.19,236.8Z"/><path class="cls-1" d="M269.2,236.8c0-41,32-73.44,72.63-73.44s72.62,32.44,72.62,73.44-32,73.44-72.62,73.44S269.2,277.8,269.2,236.8Zm127.5,0c0-31.82-24.27-56.91-54.87-56.91S287.16,205,287.16,236.8c0,31.62,24.07,56.71,54.67,56.71S396.7,268.42,396.7,236.8Z"/><path class="cls-1" d="M432.6,254.55v-82a8.67,8.67,0,1,1,17.34,0v83c0,24.07,15.5,38.55,35.08,38.55,19.79,0,35.3-14.48,35.3-38.55v-83a8.67,8.67,0,1,1,17.33,0v82c0,33.66-23.25,55.69-52.63,55.69S432.6,288.21,432.6,254.55Z"/><path class="cls-1" d="M560.29,174a8.63,8.63,0,0,1,8.57-8.57h33c25.91,0,42.84,18.16,42.84,40.8,0,19.79-13.06,34.27-30.6,36.52l-4.08.2,44.06,52.63a7.94,7.94,0,0,1,2,5.71,8.61,8.61,0,0,1-8.57,8.57,8.31,8.31,0,0,1-6.73-3.26l-51.4-61.2a10.71,10.71,0,0,1-2.66-6.73,7.8,7.8,0,0,1,7.76-8h6.73c15.5,0,25.5-10.81,25.5-24.48,0-13.87-10-24.68-25.5-24.68H577.63V301.06a8.67,8.67,0,1,1-17.34,0Z"/><path class="cls-1" d="M686,181.52H654.13a8.18,8.18,0,0,1-8.16-8.16,8,8,0,0,1,8.16-8h81a7.83,7.83,0,0,1,8,8,8,8,0,0,1-8,8.16H703.29V301.06a8.67,8.67,0,1,1-17.33,0Z"/><path class="cls-1" d="M761.45,131.39H744.89a4.76,4.76,0,0,1,0-9.51h16.56V105.69a5.09,5.09,0,0,1,5.06-5.07,5.18,5.18,0,0,1,5.07,5.07v16.19h16.56a4.76,4.76,0,0,1,0,9.51H771.58v16.19a5.1,5.1,0,0,1-5.07,5.07,5.17,5.17,0,0,1-5.06-5.07Z"/></g></g></svg>
