<svg width="95" height="95" viewBox="0 0 95 95" fill="none" xmlns="http://www.w3.org/2000/svg">
<circle cx="47.5" cy="47.5" r="47.5" fill="#F37C4C"/>
<path d="M30.2876 50.8501H35.3413V52H28.874V41.3359H30.2876V50.8501ZM44.665 47.0122C44.665 48.0571 44.4893 48.9702 44.1377 49.7515C43.7861 50.5278 43.2881 51.1211 42.6436 51.5312C41.999 51.9414 41.2471 52.1465 40.3877 52.1465C39.5479 52.1465 38.8032 51.9414 38.1538 51.5312C37.5044 51.1162 36.999 50.5278 36.6377 49.7661C36.2812 48.9995 36.0981 48.1133 36.0884 47.1074V46.3384C36.0884 45.313 36.2666 44.4072 36.623 43.6211C36.9795 42.835 37.4824 42.2344 38.1318 41.8193C38.7861 41.3994 39.5332 41.1895 40.373 41.1895C41.2275 41.1895 41.9795 41.397 42.6289 41.812C43.2832 42.2222 43.7861 42.8203 44.1377 43.6064C44.4893 44.3877 44.665 45.2983 44.665 46.3384V47.0122ZM43.2661 46.3237C43.2661 45.0591 43.0122 44.0898 42.5044 43.416C41.9966 42.7373 41.2861 42.3979 40.373 42.3979C39.4844 42.3979 38.7837 42.7373 38.271 43.416C37.7632 44.0898 37.502 45.0273 37.4873 46.2285V47.0122C37.4873 48.2378 37.7437 49.2021 38.2563 49.9053C38.7739 50.6035 39.4844 50.9526 40.3877 50.9526C41.2959 50.9526 41.999 50.623 42.4971 49.9639C42.9951 49.2998 43.2515 48.3501 43.2661 47.1147V46.3237ZM54.6479 50.6011C54.2866 51.1187 53.7812 51.5068 53.1318 51.7656C52.4873 52.0195 51.7354 52.1465 50.876 52.1465C50.0068 52.1465 49.2354 51.9438 48.5615 51.5386C47.8877 51.1284 47.3652 50.5474 46.9941 49.7954C46.6279 49.0435 46.4399 48.1719 46.4302 47.1807V46.2505C46.4302 44.644 46.8037 43.3989 47.5508 42.5151C48.3027 41.6313 49.3574 41.1895 50.7148 41.1895C51.8281 41.1895 52.7241 41.4751 53.4028 42.0464C54.0815 42.6128 54.4966 43.4185 54.6479 44.4634H53.2417C52.978 43.0522 52.1382 42.3467 50.7222 42.3467C49.7798 42.3467 49.0645 42.6787 48.5762 43.3428C48.0928 44.002 47.8486 44.959 47.8438 46.2139V47.0854C47.8438 48.2817 48.1172 49.2339 48.6641 49.9419C49.2109 50.645 49.9507 50.9966 50.8833 50.9966C51.4106 50.9966 51.8721 50.938 52.2676 50.8208C52.6631 50.7036 52.9902 50.5059 53.249 50.2275V47.8325H50.7808V46.6899H54.6479V50.6011ZM65.2021 47.0122C65.2021 48.0571 65.0264 48.9702 64.6748 49.7515C64.3232 50.5278 63.8252 51.1211 63.1807 51.5312C62.5361 51.9414 61.7842 52.1465 60.9248 52.1465C60.085 52.1465 59.3403 51.9414 58.6909 51.5312C58.0415 51.1162 57.5361 50.5278 57.1748 49.7661C56.8184 48.9995 56.6353 48.1133 56.6255 47.1074V46.3384C56.6255 45.313 56.8037 44.4072 57.1602 43.6211C57.5166 42.835 58.0195 42.2344 58.6689 41.8193C59.3232 41.3994 60.0703 41.1895 60.9102 41.1895C61.7646 41.1895 62.5166 41.397 63.166 41.812C63.8203 42.2222 64.3232 42.8203 64.6748 43.6064C65.0264 44.3877 65.2021 45.2983 65.2021 46.3384V47.0122ZM63.8032 46.3237C63.8032 45.0591 63.5493 44.0898 63.0415 43.416C62.5337 42.7373 61.8232 42.3979 60.9102 42.3979C60.0215 42.3979 59.3208 42.7373 58.8081 43.416C58.3003 44.0898 58.0391 45.0273 58.0244 46.2285V47.0122C58.0244 48.2378 58.2808 49.2021 58.7935 49.9053C59.311 50.6035 60.0215 50.9526 60.9248 50.9526C61.833 50.9526 62.5361 50.623 63.0342 49.9639C63.5322 49.2998 63.7886 48.3501 63.8032 47.1147V46.3237Z" fill="black"/>
</svg>
