<svg xmlns="http://www.w3.org/2000/svg" viewBox="0 0 801.14 384.9"><defs><style>.cls-1,.cls-6{font-size:203.99px;}.cls-1,.cls-5,.cls-6,.cls-9{fill:#fff;}.cls-1,.cls-6,.cls-9{font-family:BCAlphapipeRB-Regular, BC Alphapipe;}.cls-1{letter-spacing:0.08em;}.cls-2{fill:#f37c4b;}.cls-3,.cls-4{fill:none;}.cls-3{stroke:#fff;stroke-linecap:round;stroke-miterlimit:10;stroke-width:2.66px;}.cls-6{letter-spacing:-0.03em;}.cls-7{letter-spacing:-0.02em;}.cls-8{letter-spacing:-0.09em;}.cls-9{font-size:123.57px;letter-spacing:-0.02em;}</style></defs><g id="Layer_2" data-name="Layer 2"><g id="Layer_1-2" data-name="Layer 1"><text class="cls-1" transform="translate(0 173.39)"><tspan xml:space="preserve">Z  T </tspan></text><circle class="cls-2" cx="217.33" cy="108.84" r="64.55"/><path class="cls-2" d="M153.4,99.84c4.16-3.65,8.21-7.16,12.23-10.65,1.66-1.44,3.77-3.21,6.54-3.13a8.38,8.38,0,0,1,5.46,2.68c3.6,3.45,5.74,9.11,5.9,9.54,3.18,8.7.4,14.89-.29,22.72-1.77,19.77,11,36,12.77,38.33a50.41,50.41,0,0,0,17.44,13.95"/><path class="cls-2" d="M212.73,44.44h0A29.5,29.5,0,0,0,201.12,54c-1.44,2.09-5.16,7.41-3.4,11.93a6,6,0,0,0,1.77,2.45c2.59,2.18,7.94,3.59,19,5.5,21.69,3.78,25.9,2.67,34.36,6A60.4,60.4,0,0,1,273,94a47.77,47.77,0,0,1,8.91,14.09"/><path class="cls-2" d="M173.3,61.64c5.52,4.87,10.77,9.6,15.74,14.12C200.27,86,210.1,95.3,218.45,103.39c25.16,24.37,38.37,39.12,43.45,44.86l3.35,3.83"/><line class="cls-3" x1="175.74" y1="158.45" x2="175.74" y2="158.44"/><line class="cls-3" x1="263.2" y1="63.72" x2="263.19" y2="63.72"/><polyline class="cls-3" points="212.4 44.42 212.41 44.42 212.42 44.42"/><path class="cls-3" d="M150.33,104.05c6.11-5.36,16.33-21.57,25.85-16.07,3.56,2,5.82,5.86,6.88,9.83,2.6,9.7-.79,19.45-.12,29.25A58.88,58.88,0,0,0,195.7,159.3c5,6.41,13.55,13.58,19.78,16.67"/><path class="cls-3" d="M212.42,44.42h0A29.4,29.4,0,0,0,200.81,54c-1.45,2.09-5.16,7.4-3.41,11.93a6.06,6.06,0,0,0,1.78,2.45c2.59,2.17,7.93,3.58,18.95,5.5,21.69,3.78,25.91,2.67,34.37,6A60.4,60.4,0,0,1,272.66,94c4,4.33,9.31,12.37,11.37,17.34"/><path class="cls-3" d="M183.43,166.7l-7.69-8.26a80.6,80.6,0,0,1-7.58-28.1c-.61-7.63-1.48-20.59,5.4-34.93a61.2,61.2,0,0,1,3.75-6.69,0,0,0,0,0,0,0,61.09,61.09,0,0,1,11.4-13,68.53,68.53,0,0,1,8.4-6.17c.68-.43,1.37-.85,2.06-1.24,16.91-9.9,33.53-9.52,40.25-9.27a78.05,78.05,0,0,1,23.76,4.66l5.18,2.38"/><path class="cls-3" d="M173,61.62q8.28,7.31,15.73,14.12C200,86,209.78,95.28,218.13,103.37c25.16,24.37,38.38,39.12,43.46,44.86l3.35,3.82"/><path class="cls-4" d="M277.91,110.15a60.73,60.73,0,1,1-60.7-60.81A60.7,60.7,0,0,1,277.91,110.15Z"/><path class="cls-5" d="M352.36,215.28c-2.05-4.1-6.76-7.53-10-10.75-3.66-3.6-7.31-7.2-10.63-11.07a133.54,133.54,0,0,0-19.89-19.67c-1.6-1.27-4.82-3.76-8.86-3.49a12.08,12.08,0,0,0-7.09,3.49c-5.87-6.09-11.69-12.24-17.5-18.33,4.59-6,14.9-21.16,15.95-42.65,1.77-37.88-26.92-61.2-29.3-63.08-19.16-15-39.88-16-45.53-16.23a76.21,76.21,0,0,0-30.63,5.26,75.74,75.74,0,0,0-23.54,16c-4.76,4.71-21.82,22.16-23.54,49.68a76.39,76.39,0,0,0,7.09,36.39c3.33,7.31,14.68,28.92,40.49,39.22A75.61,75.61,0,0,0,236,182.88a77.67,77.67,0,0,0,28.19-13.3q8.81,9,17.56,18.06a12.85,12.85,0,0,0-1.55,13.57c.88,2,3.87,4,5.37,5.59l5.37,5.54c5.48,5.65,11,11.19,16.12,17.06,4.87,5.54,10.3,11,16.89,14.51,7.37,3.94,16.78-.94,22.16-6.31S356.12,222.81,352.36,215.28ZM217.21,170.91a60.79,60.79,0,1,1,60.7-60.76A60.75,60.75,0,0,1,217.21,170.91Z"/><path class="cls-4" d="M277.91,110.15a60.73,60.73,0,1,1-60.7-60.81A60.7,60.7,0,0,1,277.91,110.15Z"/><text class="cls-6" transform="translate(121.11 338.8)">C<tspan class="cls-7" x="144.02" y="0">OU</tspan><tspan class="cls-8" x="430.42" y="0">R</tspan><tspan class="cls-7" x="526.9" y="0">T</tspan></text><text class="cls-9" transform="translate(739.11 200.54)">+</text></g></g></svg>